<svg height="512" viewBox="0 0 64 64" width="512" xmlns="http://www.w3.org/2000/svg"><g id="money_&#xB7;_ecommerce_&#xB7;_shopping_&#xB7;_cart_&#xB7;_global" data-name="money &#xB7; ecommerce &#xB7; shopping &#xB7; cart &#xB7; global"><path d="m12.951 39h8.658c2.074-6.574 5.948-11 10.391-11a21.985 21.985 0 0 0 -19.049 11z" fill="#005ece"/><path d="m44 50h10a21.881 21.881 0 0 0 -2.951-11h-8.658a36.833 36.833 0 0 1 1.609 11z" fill="#2488ff"/><path d="m42.391 39h8.658a21.985 21.985 0 0 0 -19.049-11c4.443 0 8.317 4.426 10.391 11z" fill="#57a4ff"/><path d="m42.39 61h8.67a21.891 21.891 0 0 0 2.94-11h-10a36.539 36.539 0 0 1 -1.61 11z" fill="#006df0"/><path d="m10 50a21.891 21.891 0 0 0 2.94 11h8.67a36.539 36.539 0 0 1 -1.61-11z" fill="#003f8a"/><path d="m21.609 39h-8.658a21.881 21.881 0 0 0 -2.951 11h10a36.833 36.833 0 0 1 1.609-11z" fill="#004fac"/><path d="m44 50a36.833 36.833 0 0 0 -1.609-11h-10.391v11z" fill="#006df0"/><path d="m21.609 39h10.391v-11c-4.443 0-8.317 4.426-10.391 11z" fill="#006df0"/><path d="m42.391 39c-2.074-6.574-5.948-11-10.391-11v11z" fill="#2488ff"/><path d="m32 50v-11h-10.391a36.833 36.833 0 0 0 -1.609 11z" fill="#005ece"/><path d="m32 50v11h10.39a36.539 36.539 0 0 0 1.61-11z" fill="#005ece"/><path d="m20 50a36.539 36.539 0 0 0 1.61 11h10.39v-11z" fill="#004fac"/><path d="m61 10v15a2.006 2.006 0 0 1 -2 2h-6l-5 5v-5h-3a2.006 2.006 0 0 1 -2-2v-15a2.006 2.006 0 0 1 2-2h14a2.006 2.006 0 0 1 2 2z" fill="#ffcd00"/><path d="m21 11v14a2.006 2.006 0 0 1 -2 2h-3v5l-5-5h-6a2.006 2.006 0 0 1 -2-2v-14a2.006 2.006 0 0 1 2-2h14a2.006 2.006 0 0 1 2 2z" fill="#ed1c24"/><circle cx="10" cy="23" fill="#9bc9ff" r="1"/><circle cx="15" cy="23" fill="#9bc9ff" r="1"/><path d="m32 3a8 8 0 0 0 -8 8c0 4.418 8 15 8 15s8-10.582 8-15a8 8 0 0 0 -8-8z" fill="#ff9811"/><path d="m32 3a8.056 8.056 0 0 0 -1.5.145 8 8 0 0 1 6.5 7.855c0 3.2-4.184 9.614-6.5 12.922.886 1.266 1.5 2.078 1.5 2.078s8-10.582 8-15a8 8 0 0 0 -8-8z" fill="#ee8700"/><path d="m50 16h-2v6a2 2 0 0 0 2 2h4a2 2 0 0 0 2-2v-6z" fill="#ed1c24"/><path d="m55 16v6a2 2 0 0 1 -2 2h1a2 2 0 0 0 2-2v-6z" fill="#bd0022"/><circle cx="9.556" cy="23" fill="#4e901e" r="1.556"/><circle cx="14.444" cy="23" fill="#4e901e" r="1.556"/><path d="m16.613 14h-7.355l-.266-2.124a1 1 0 0 0 -.992-.876h-2a1 1 0 0 0 0 2h1.117l.766 6.124a1 1 0 0 0 .992.876h6.4a1 1 0 0 0 .949-.684l1.333-4a1 1 0 0 0 -.944-1.316z" fill="#5eac24"/><path d="m31 9h2a1 1 0 0 1 1 1 1 1 0 0 0 2 0 3 3 0 0 0 -3-3v-1a1 1 0 0 0 -2 0v1a3 3 0 0 0 0 6h2a1 1 0 0 1 0 2h-2a1 1 0 0 1 -1-1 1 1 0 0 0 -2 0 3 3 0 0 0 3 3v1a1 1 0 0 0 2 0v-1a3 3 0 0 0 0-6h-2a1 1 0 0 1 0-2z" fill="#f1f2f2"/><path d="m49 22a1 1 0 0 0 1 1h4a1 1 0 0 0 1-1v-5h-6z" fill="none"/><path d="m51 14a1 1 0 0 1 2 0v2h2v-2a3 3 0 0 0 -6 0v2h2z" fill="#4e901e"/></g></svg>