<?xml version="1.0" encoding="iso-8859-1"?>
<!-- Generator: Adobe Illustrator 19.0.0, SVG Export Plug-In . SVG Version: 6.00 Build 0)  -->
<svg version="1.1" id="Capa_1" xmlns="http://www.w3.org/2000/svg" xmlns:xlink="http://www.w3.org/1999/xlink" x="0px" y="0px"
	 viewBox="0 0 464 464" style="enable-background:new 0 0 464 464;" xml:space="preserve">
<circle style="fill:#E05346;" cx="220" cy="144" r="88"/>
<path style="fill:#F9F1ED;" d="M220,208c-35.288,0-64-28.712-64-64s28.712-64,64-64s64,28.712,64,64S255.288,208,220,208z M220,96
	c-26.472,0-48,21.528-48,48s21.528,48,48,48s48-21.528,48-48S246.472,96,220,96z"/>
<path style="fill:#FCBA5B;" d="M340,280c0-13.256-10.744-24-24-24s-24,10.744-24,24c0-13.256-10.744-24-24-24s-24,10.744-24,24V160
	c0-13.256-10.744-24-24-24s-24,10.744-24,24v208l-39.712-39.712c-5.312-5.312-12.504-8.288-20-8.288
	C120.664,320,108,332.664,108,348.288c0,7.504,2.976,14.696,8.288,20L196,448v16h184v-32l8-16c0,0,0-91.384,0-136.032
	C388,266.72,377.256,256,364,256S340,266.744,340,280z"/>
<g>
	<polygon style="fill:#2D2E46;" points="220,40 196,0 244,0 	"/>
	<polygon style="fill:#2D2E46;" points="324,144 364,120 364,168 	"/>
	<polygon style="fill:#2D2E46;" points="116,144 76,168 76,120 	"/>
</g>
<g>
</g>
<g>
</g>
<g>
</g>
<g>
</g>
<g>
</g>
<g>
</g>
<g>
</g>
<g>
</g>
<g>
</g>
<g>
</g>
<g>
</g>
<g>
</g>
<g>
</g>
<g>
</g>
<g>
</g>
</svg>
